<svg width="230" height="285" viewBox="0 0 230 285" fill="none" xmlns="http://www.w3.org/2000/svg">
<mask id="path-1-inside-1_2102_370" fill="white">
<path d="M0 0H230V285H0V0Z"/>
</mask>
<path d="M230 285V282H0V285V288H230V285Z" fill="#65B4DA" mask="url(#path-1-inside-1_2102_370)"/>
<rect y="3.5" width="30" height="12" rx="3" fill="#28203A"/>
<rect y="3.5" width="30" height="12" rx="3" fill="black" fill-opacity="0.2"/>
<rect y="19.5" width="30" height="12" rx="3" fill="#28203A"/>
<rect y="19.5" width="30" height="12" rx="3" fill="black" fill-opacity="0.2"/>
<rect y="35.5" width="30" height="12" rx="3" fill="#28203A"/>
<rect y="35.5" width="30" height="12" rx="3" fill="black" fill-opacity="0.2"/>
<rect y="51.5" width="30" height="12" rx="3" fill="#2FF0B8"/>
<rect y="51.5" width="30" height="12" rx="3" fill="black" fill-opacity="0.2"/>
<rect y="67.5" width="30" height="12" rx="3" fill="#2FF0B8"/>
<rect y="67.5" width="30" height="12" rx="3" fill="black" fill-opacity="0.2"/>
<rect y="83.5" width="30" height="12" rx="3" fill="#3EE8BD"/>
<rect y="83.5" width="30" height="12" rx="3" fill="black" fill-opacity="0.2"/>
<rect y="99.5" width="30" height="12" rx="3" fill="#45E2BF"/>
<rect y="99.5" width="30" height="12" rx="3" fill="black" fill-opacity="0.2"/>
<rect y="115.5" width="30" height="12" rx="3" fill="#4BDBC3"/>
<rect y="115.5" width="30" height="12" rx="3" fill="black" fill-opacity="0.2"/>
<rect y="131.5" width="30" height="12" rx="3" fill="#57CDCC"/>
<rect y="131.5" width="30" height="12" rx="3" fill="black" fill-opacity="0.2"/>
<rect y="147.5" width="30" height="12" rx="3" fill="#5CC6D1"/>
<rect y="147.5" width="30" height="12" rx="3" fill="black" fill-opacity="0.2"/>
<rect y="163.5" width="30" height="12" rx="3" fill="#60BED5"/>
<rect y="163.5" width="30" height="12" rx="3" fill="black" fill-opacity="0.2"/>
<rect y="179.5" width="30" height="12" rx="3" fill="#63B7D9"/>
<rect y="179.5" width="30" height="12" rx="3" fill="black" fill-opacity="0.2"/>
<rect y="195.5" width="30" height="12" rx="3" fill="#6AAFDE"/>
<rect y="195.5" width="30" height="12" rx="3" fill="black" fill-opacity="0.2"/>
<rect y="211.5" width="30" height="12" rx="3" fill="#68A9E1"/>
<rect y="211.5" width="30" height="12" rx="3" fill="black" fill-opacity="0.2"/>
<rect y="227.5" width="30" height="12" rx="3" fill="#6E9FE7"/>
<rect y="227.5" width="30" height="12" rx="3" fill="black" fill-opacity="0.2"/>
<rect y="243.5" width="30" height="12" rx="3" fill="#6F98EA"/>
<rect y="243.5" width="30" height="12" rx="3" fill="black" fill-opacity="0.2"/>
<rect y="259.5" width="30" height="12" rx="3" fill="#738FF0"/>
<rect y="259.5" width="30" height="12" rx="3" fill="black" fill-opacity="0.2"/>
<rect x="40" y="3.5" width="30" height="12" rx="3" fill="#201A2E"/>
<rect x="40" y="3.5" width="30" height="12" rx="3" fill="black" fill-opacity="0.2"/>
<rect x="40" y="19.5" width="30" height="12" rx="3" fill="#201A2E"/>
<rect x="40" y="19.5" width="30" height="12" rx="3" fill="black" fill-opacity="0.2"/>
<rect x="40" y="35.5" width="30" height="12" rx="3" fill="#201A2E"/>
<rect x="40" y="35.5" width="30" height="12" rx="3" fill="black" fill-opacity="0.2"/>
<rect x="40" y="51.5" width="30" height="12" rx="3" fill="#201A2E"/>
<rect x="40" y="51.5" width="30" height="12" rx="3" fill="black" fill-opacity="0.2"/>
<rect x="40" y="67.5" width="30" height="12" rx="3" fill="#201A2E"/>
<rect x="40" y="67.5" width="30" height="12" rx="3" fill="black" fill-opacity="0.2"/>
<rect x="40" y="83.5" width="30" height="12" rx="3" fill="#3EE8BD"/>
<rect x="40" y="83.5" width="30" height="12" rx="3" fill="black" fill-opacity="0.2"/>
<rect x="40" y="99.5" width="30" height="12" rx="3" fill="#45E2BF"/>
<rect x="40" y="99.5" width="30" height="12" rx="3" fill="black" fill-opacity="0.2"/>
<rect x="40" y="115.5" width="30" height="12" rx="3" fill="#4BDBC3"/>
<rect x="40" y="115.5" width="30" height="12" rx="3" fill="black" fill-opacity="0.2"/>
<rect x="40" y="131.5" width="30" height="12" rx="3" fill="#57CDCC"/>
<rect x="40" y="131.5" width="30" height="12" rx="3" fill="black" fill-opacity="0.2"/>
<rect x="40" y="147.5" width="30" height="12" rx="3" fill="#5CC6D1"/>
<rect x="40" y="147.5" width="30" height="12" rx="3" fill="black" fill-opacity="0.2"/>
<rect x="40" y="163.5" width="30" height="12" rx="3" fill="#60BED5"/>
<rect x="40" y="163.5" width="30" height="12" rx="3" fill="black" fill-opacity="0.2"/>
<rect x="40" y="179.5" width="30" height="12" rx="3" fill="#63B7D9"/>
<rect x="40" y="179.5" width="30" height="12" rx="3" fill="black" fill-opacity="0.2"/>
<rect x="40" y="195.5" width="30" height="12" rx="3" fill="#6AAFDE"/>
<rect x="40" y="195.5" width="30" height="12" rx="3" fill="black" fill-opacity="0.2"/>
<rect x="40" y="211.5" width="30" height="12" rx="3" fill="#68A9E1"/>
<rect x="40" y="211.5" width="30" height="12" rx="3" fill="black" fill-opacity="0.2"/>
<rect x="40" y="227.5" width="30" height="12" rx="3" fill="#6E9FE7"/>
<rect x="40" y="227.5" width="30" height="12" rx="3" fill="black" fill-opacity="0.2"/>
<rect x="40" y="243.5" width="30" height="12" rx="3" fill="#6F98EA"/>
<rect x="40" y="243.5" width="30" height="12" rx="3" fill="black" fill-opacity="0.2"/>
<rect x="40" y="259.5" width="30" height="12" rx="3" fill="#738FF0"/>
<rect x="40" y="259.5" width="30" height="12" rx="3" fill="black" fill-opacity="0.2"/>
<rect x="80" y="3.5" width="30" height="12" rx="3" fill="#201A2E"/>
<rect x="80" y="3.5" width="30" height="12" rx="3" fill="black" fill-opacity="0.2"/>
<rect x="80" y="19.5" width="30" height="12" rx="3" fill="#201A2E"/>
<rect x="80" y="19.5" width="30" height="12" rx="3" fill="black" fill-opacity="0.2"/>
<rect x="80" y="35.5" width="30" height="12" rx="3" fill="#201A2E"/>
<rect x="80" y="35.5" width="30" height="12" rx="3" fill="black" fill-opacity="0.2"/>
<rect x="80" y="51.5" width="30" height="12" rx="3" fill="#201A2E"/>
<rect x="80" y="51.5" width="30" height="12" rx="3" fill="black" fill-opacity="0.2"/>
<rect x="80" y="67.5" width="30" height="12" rx="3" fill="#201A2E"/>
<rect x="80" y="67.5" width="30" height="12" rx="3" fill="black" fill-opacity="0.2"/>
<rect x="80" y="83.5" width="30" height="12" rx="3" fill="#1A1525"/>
<rect x="80" y="83.5" width="30" height="12" rx="3" fill="black" fill-opacity="0.2"/>
<rect x="80" y="99.5" width="30" height="12" rx="3" fill="#1A1525"/>
<rect x="80" y="99.5" width="30" height="12" rx="3" fill="black" fill-opacity="0.2"/>
<rect x="80" y="115.5" width="30" height="12" rx="3" fill="#4BDBC3"/>
<rect x="80" y="115.5" width="30" height="12" rx="3" fill="black" fill-opacity="0.2"/>
<rect x="80" y="131.5" width="30" height="12" rx="3" fill="#57CDCC"/>
<rect x="80" y="131.5" width="30" height="12" rx="3" fill="black" fill-opacity="0.2"/>
<rect x="80" y="147.5" width="30" height="12" rx="3" fill="#5CC6D1"/>
<rect x="80" y="147.5" width="30" height="12" rx="3" fill="black" fill-opacity="0.2"/>
<rect x="80" y="163.5" width="30" height="12" rx="3" fill="#60BED5"/>
<rect x="80" y="163.5" width="30" height="12" rx="3" fill="black" fill-opacity="0.2"/>
<rect x="80" y="179.5" width="30" height="12" rx="3" fill="#63B7D9"/>
<rect x="80" y="179.5" width="30" height="12" rx="3" fill="black" fill-opacity="0.2"/>
<rect x="80" y="195.5" width="30" height="12" rx="3" fill="#6AAFDE"/>
<rect x="80" y="195.5" width="30" height="12" rx="3" fill="black" fill-opacity="0.2"/>
<rect x="80" y="211.5" width="30" height="12" rx="3" fill="#68A9E1"/>
<rect x="80" y="211.5" width="30" height="12" rx="3" fill="black" fill-opacity="0.2"/>
<rect x="80" y="227.5" width="30" height="12" rx="3" fill="#6E9FE7"/>
<rect x="80" y="227.5" width="30" height="12" rx="3" fill="black" fill-opacity="0.2"/>
<rect x="80" y="243.5" width="30" height="12" rx="3" fill="#6F98EA"/>
<rect x="80" y="243.5" width="30" height="12" rx="3" fill="black" fill-opacity="0.2"/>
<rect x="80" y="259.5" width="30" height="12" rx="3" fill="#738FF0"/>
<rect x="80" y="259.5" width="30" height="12" rx="3" fill="black" fill-opacity="0.2"/>
<rect x="120" y="3.5" width="30" height="12" rx="3" fill="#201A2E"/>
<rect x="120" y="3.5" width="30" height="12" rx="3" fill="black" fill-opacity="0.2"/>
<rect x="120" y="19.5" width="30" height="12" rx="3" fill="#201A2E"/>
<rect x="120" y="19.5" width="30" height="12" rx="3" fill="black" fill-opacity="0.2"/>
<rect x="120" y="35.5" width="30" height="12" rx="3" fill="#201A2E"/>
<rect x="120" y="35.5" width="30" height="12" rx="3" fill="black" fill-opacity="0.2"/>
<rect x="120" y="51.5" width="30" height="12" rx="3" fill="#201A2E"/>
<rect x="120" y="51.5" width="30" height="12" rx="3" fill="black" fill-opacity="0.2"/>
<rect x="120" y="67.5" width="30" height="12" rx="3" fill="#201A2E"/>
<rect x="120" y="67.5" width="30" height="12" rx="3" fill="black" fill-opacity="0.2"/>
<rect x="120" y="83.5" width="30" height="12" rx="3" fill="#1A1525"/>
<rect x="120" y="83.5" width="30" height="12" rx="3" fill="black" fill-opacity="0.2"/>
<rect x="120" y="99.5" width="30" height="12" rx="3" fill="#1A1525"/>
<rect x="120" y="99.5" width="30" height="12" rx="3" fill="black" fill-opacity="0.2"/>
<rect x="120" y="115.5" width="30" height="12" rx="3" fill="#15111E"/>
<rect x="120" y="115.5" width="30" height="12" rx="3" fill="black" fill-opacity="0.2"/>
<rect x="120" y="131.5" width="30" height="12" rx="3" fill="#110E18"/>
<rect x="120" y="131.5" width="30" height="12" rx="3" fill="black" fill-opacity="0.2"/>
<rect x="120" y="147.5" width="30" height="12" rx="3" fill="#5CC6D1"/>
<rect x="120" y="147.5" width="30" height="12" rx="3" fill="black" fill-opacity="0.2"/>
<rect x="120" y="163.5" width="30" height="12" rx="3" fill="#60BED5"/>
<rect x="120" y="163.5" width="30" height="12" rx="3" fill="black" fill-opacity="0.2"/>
<rect x="120" y="179.5" width="30" height="12" rx="3" fill="#63B7D9"/>
<rect x="120" y="179.5" width="30" height="12" rx="3" fill="black" fill-opacity="0.2"/>
<rect x="120" y="195.5" width="30" height="12" rx="3" fill="#6AAFDE"/>
<rect x="120" y="195.5" width="30" height="12" rx="3" fill="black" fill-opacity="0.2"/>
<rect x="120" y="211.5" width="30" height="12" rx="3" fill="#68A9E1"/>
<rect x="120" y="211.5" width="30" height="12" rx="3" fill="black" fill-opacity="0.2"/>
<rect x="120" y="227.5" width="30" height="12" rx="3" fill="#6E9FE7"/>
<rect x="120" y="227.5" width="30" height="12" rx="3" fill="black" fill-opacity="0.2"/>
<rect x="120" y="243.5" width="30" height="12" rx="3" fill="#6F98EA"/>
<rect x="120" y="243.5" width="30" height="12" rx="3" fill="black" fill-opacity="0.2"/>
<rect x="120" y="259.5" width="30" height="12" rx="3" fill="#738FF0"/>
<rect x="120" y="259.5" width="30" height="12" rx="3" fill="black" fill-opacity="0.2"/>
<rect x="160" y="3.5" width="30" height="12" rx="3" fill="#201A2E"/>
<rect x="160" y="3.5" width="30" height="12" rx="3" fill="black" fill-opacity="0.2"/>
<rect x="160" y="19.5" width="30" height="12" rx="3" fill="#201A2E"/>
<rect x="160" y="19.5" width="30" height="12" rx="3" fill="black" fill-opacity="0.2"/>
<rect x="160" y="35.5" width="30" height="12" rx="3" fill="#201A2E"/>
<rect x="160" y="35.5" width="30" height="12" rx="3" fill="black" fill-opacity="0.2"/>
<rect x="160" y="51.5" width="30" height="12" rx="3" fill="#201A2E"/>
<rect x="160" y="51.5" width="30" height="12" rx="3" fill="black" fill-opacity="0.2"/>
<rect x="160" y="67.5" width="30" height="12" rx="3" fill="#201A2E"/>
<rect x="160" y="67.5" width="30" height="12" rx="3" fill="black" fill-opacity="0.2"/>
<rect x="160" y="83.5" width="30" height="12" rx="3" fill="#1A1525"/>
<rect x="160" y="83.5" width="30" height="12" rx="3" fill="black" fill-opacity="0.2"/>
<rect x="160" y="99.5" width="30" height="12" rx="3" fill="#1A1525"/>
<rect x="160" y="99.5" width="30" height="12" rx="3" fill="black" fill-opacity="0.2"/>
<rect x="160" y="115.5" width="30" height="12" rx="3" fill="#15111E"/>
<rect x="160" y="115.5" width="30" height="12" rx="3" fill="black" fill-opacity="0.2"/>
<rect x="160" y="131.5" width="30" height="12" rx="3" fill="#110E18"/>
<rect x="160" y="131.5" width="30" height="12" rx="3" fill="black" fill-opacity="0.2"/>
<rect x="160" y="147.5" width="30" height="12" rx="3" fill="#0E0B13"/>
<rect x="160" y="147.5" width="30" height="12" rx="3" fill="black" fill-opacity="0.2"/>
<rect x="160" y="163.5" width="30" height="12" rx="3" fill="#0B090F"/>
<rect x="160" y="163.5" width="30" height="12" rx="3" fill="black" fill-opacity="0.2"/>
<rect x="160" y="179.5" width="30" height="12" rx="3" fill="#63B7D9"/>
<rect x="160" y="179.5" width="30" height="12" rx="3" fill="black" fill-opacity="0.2"/>
<rect x="160" y="195.5" width="30" height="12" rx="3" fill="#6AAFDE"/>
<rect x="160" y="195.5" width="30" height="12" rx="3" fill="black" fill-opacity="0.2"/>
<rect x="160" y="211.5" width="30" height="12" rx="3" fill="#68A9E1"/>
<rect x="160" y="211.5" width="30" height="12" rx="3" fill="black" fill-opacity="0.2"/>
<rect x="160" y="227.5" width="30" height="12" rx="3" fill="#6E9FE7"/>
<rect x="160" y="227.5" width="30" height="12" rx="3" fill="black" fill-opacity="0.2"/>
<rect x="160" y="243.5" width="30" height="12" rx="3" fill="#6F98EA"/>
<rect x="160" y="243.5" width="30" height="12" rx="3" fill="black" fill-opacity="0.2"/>
<rect x="160" y="259.5" width="30" height="12" rx="3" fill="#738FF0"/>
<rect x="160" y="259.5" width="30" height="12" rx="3" fill="black" fill-opacity="0.2"/>
<rect x="200" y="3.5" width="30" height="12" rx="3" fill="#201A2E"/>
<rect x="200" y="3.5" width="30" height="12" rx="3" fill="black" fill-opacity="0.2"/>
<rect x="200" y="19.5" width="30" height="12" rx="3" fill="#201A2E"/>
<rect x="200" y="19.5" width="30" height="12" rx="3" fill="black" fill-opacity="0.2"/>
<rect x="200" y="35.5" width="30" height="12" rx="3" fill="#201A2E"/>
<rect x="200" y="35.5" width="30" height="12" rx="3" fill="black" fill-opacity="0.2"/>
<rect x="200" y="51.5" width="30" height="12" rx="3" fill="#201A2E"/>
<rect x="200" y="51.5" width="30" height="12" rx="3" fill="black" fill-opacity="0.2"/>
<rect x="200" y="67.5" width="30" height="12" rx="3" fill="#201A2E"/>
<rect x="200" y="67.5" width="30" height="12" rx="3" fill="black" fill-opacity="0.2"/>
<rect x="200" y="83.5" width="30" height="12" rx="3" fill="#1A1525"/>
<rect x="200" y="83.5" width="30" height="12" rx="3" fill="black" fill-opacity="0.2"/>
<rect x="200" y="99.5" width="30" height="12" rx="3" fill="#1A1525"/>
<rect x="200" y="99.5" width="30" height="12" rx="3" fill="black" fill-opacity="0.2"/>
<rect x="200" y="115.5" width="30" height="12" rx="3" fill="#15111E"/>
<rect x="200" y="115.5" width="30" height="12" rx="3" fill="black" fill-opacity="0.2"/>
<rect x="200" y="131.5" width="30" height="12" rx="3" fill="#110E18"/>
<rect x="200" y="131.5" width="30" height="12" rx="3" fill="black" fill-opacity="0.2"/>
<rect x="200" y="147.5" width="30" height="12" rx="3" fill="#0E0B13"/>
<rect x="200" y="147.5" width="30" height="12" rx="3" fill="black" fill-opacity="0.2"/>
<rect x="200" y="163.5" width="30" height="12" rx="3" fill="#0B090F"/>
<rect x="200" y="163.5" width="30" height="12" rx="3" fill="black" fill-opacity="0.2"/>
<rect x="200" y="179.5" width="30" height="12" rx="3" fill="#09070C"/>
<rect x="200" y="179.5" width="30" height="12" rx="3" fill="black" fill-opacity="0.2"/>
<rect x="200" y="195.5" width="30" height="12" rx="3" fill="#07060A"/>
<rect x="200" y="195.5" width="30" height="12" rx="3" fill="black" fill-opacity="0.2"/>
<rect x="200" y="211.5" width="30" height="12" rx="3" fill="#68A9E1"/>
<rect x="200" y="211.5" width="30" height="12" rx="3" fill="black" fill-opacity="0.2"/>
<rect x="200" y="227.5" width="30" height="12" rx="3" fill="#6E9FE7"/>
<rect x="200" y="227.5" width="30" height="12" rx="3" fill="black" fill-opacity="0.2"/>
<rect x="200" y="243.5" width="30" height="12" rx="3" fill="#6F98EA"/>
<rect x="200" y="243.5" width="30" height="12" rx="3" fill="black" fill-opacity="0.2"/>
<rect x="200" y="259.5" width="30" height="12" rx="3" fill="#738FF0"/>
<rect x="200" y="259.5" width="30" height="12" rx="3" fill="black" fill-opacity="0.2"/>
</svg>
